<?xml version="1.0" encoding="iso-8859-1"?>
<!-- Generator: Adobe Illustrator 19.0.0, SVG Export Plug-In . SVG Version: 6.00 Build 0)  -->
<svg version="1.1" id="Layer_1" xmlns="http://www.w3.org/2000/svg" xmlns:xlink="http://www.w3.org/1999/xlink" x="0px" y="0px"
	 viewBox="0 0 511.999 511.999" style="enable-background:new 0 0 511.999 511.999;" xml:space="preserve">
<g>
	<g>
		<path d="M343.503,122.146c-22.912-32.936-53.987-51.073-87.503-51.073s-64.591,18.138-87.503,51.073
			c-8.325,11.966-15.199,25.412-20.515,39.895c4.541-1.005,7.609-3.204,12.106-6.44c7.938-5.713,18.808-13.54,38.66-13.54
			c19.853,0,30.724,7.827,38.662,13.541c6.33,4.557,9.818,7.068,18.592,7.068c8.774,0,12.261-2.51,18.592-7.068
			c7.938-5.714,18.808-13.541,38.662-13.541c19.851,0,30.721,7.827,38.658,13.541c4.496,3.237,7.565,5.435,12.104,6.44
			C358.704,147.559,351.828,134.112,343.503,122.146z"/>
	</g>
</g>
<g>
	<g>
		<path d="M373.414,196.945c-0.954,0.038-1.914,0.072-2.914,0.072c-19.851,0-30.721-7.827-38.658-13.541
			c-6.329-4.557-9.816-7.068-18.587-7.068c-8.775,0-12.262,2.51-18.593,7.069c-7.938,5.714-18.808,13.54-38.66,13.54
			s-30.722-7.826-38.66-13.54c-6.33-4.558-9.818-7.069-18.593-7.069c-8.774,0-12.261,2.51-18.592,7.068
			c-7.938,5.714-18.808,13.541-38.661,13.541c-0.997,0-1.956-0.033-2.908-0.072c-2.006,11.17-3.178,22.693-3.483,34.421h241.793
			C376.593,219.639,375.42,208.115,373.414,196.945z"/>
	</g>
</g>
<g>
	<g>
		<path d="M426.009,265.714h-23.184c4.33,8.474,6.791,18.057,6.791,28.208h-34.349c0-15.363-12.498-27.861-27.861-27.861
			l-74.231-0.347v28.624h-34.348v-28.624l-74.231,0.347c-15.363,0-27.861,12.498-27.861,27.861h-34.349
			c0-10.151,2.459-19.733,6.791-28.208H85.992c-39.537,0-73.026,26.335-83.887,62.379c6.38-2.921,14.367-5.132,24.898-5.132
			c19.851,0,30.721,7.827,38.659,13.541c6.329,4.557,9.816,7.068,18.588,7.068c8.771,0,12.258-2.51,18.587-7.068
			c7.937-5.714,18.807-13.541,38.657-13.541c19.853,0,30.724,7.827,38.662,13.541c6.33,4.557,9.818,7.068,18.592,7.068
			c8.775,0,12.262-2.51,18.593-7.069c7.938-5.714,18.808-13.54,38.66-13.54c19.852,0,30.722,7.826,38.66,13.54
			c6.33,4.558,9.818,7.069,18.593,7.069c8.774,0,12.261-2.51,18.592-7.068c7.938-5.714,18.808-13.541,38.662-13.541
			c19.85,0,30.72,7.827,38.657,13.541c6.329,4.557,9.816,7.068,18.587,7.068c8.773,0,12.259-2.51,18.588-7.068
			c7.938-5.714,18.808-13.541,38.659-13.541c10.531,0,18.518,2.211,24.897,5.132C499.037,292.049,465.547,265.714,426.009,265.714z"
			/>
	</g>
</g>
<g>
	<g>
		<path d="M503.585,364.378c-6.329-4.557-9.816-7.068-18.586-7.068c-8.773,0-12.259,2.51-18.588,7.068
			c-7.938,5.714-18.808,13.541-38.659,13.541c-19.851,0-30.721-7.827-38.658-13.541c-6.329-4.557-9.816-7.068-18.586-7.068
			c-8.775,0-12.262,2.51-18.593,7.069c-7.938,5.714-18.808,13.54-38.66,13.54c-19.853,0-30.724-7.827-38.662-13.541
			c-6.33-4.557-9.818-7.068-18.592-7.068c-8.774,0-12.261,2.51-18.592,7.068c-7.938,5.714-18.808,13.541-38.662,13.541
			c-19.852,0-30.722-7.826-38.66-13.54c-6.33-4.558-9.818-7.069-18.593-7.069c-8.77,0-12.257,2.51-18.586,7.068
			c-7.937,5.714-18.807,13.541-38.658,13.541s-30.721-7.827-38.659-13.541c-6.329-4.557-9.816-7.068-18.588-7.068
			c-8.77,0-12.257,2.51-18.586,7.068c-2.462,1.772-5.208,3.749-8.417,5.632c7.817,40.348,43.392,70.916,85.992,70.916h340.017
			c42.598,0,78.175-30.568,85.99-70.917C508.793,368.127,506.046,366.151,503.585,364.378z"/>
	</g>
</g>
<g>
</g>
<g>
</g>
<g>
</g>
<g>
</g>
<g>
</g>
<g>
</g>
<g>
</g>
<g>
</g>
<g>
</g>
<g>
</g>
<g>
</g>
<g>
</g>
<g>
</g>
<g>
</g>
<g>
</g>
</svg>
