<?xml version="1.0" encoding="iso-8859-1"?>
<!-- Generator: Adobe Illustrator 18.0.0, SVG Export Plug-In . SVG Version: 6.00 Build 0)  -->
<!DOCTYPE svg PUBLIC "-//W3C//DTD SVG 1.1//EN" "http://www.w3.org/Graphics/SVG/1.1/DTD/svg11.dtd">
<svg version="1.1" id="Capa_1" xmlns="http://www.w3.org/2000/svg" xmlns:xlink="http://www.w3.org/1999/xlink" x="0px" y="0px"
	 viewBox="0 0 58.622 58.622" style="enable-background:new 0 0 58.622 58.622;" xml:space="preserve">
<g>
	<path d="M57.595,11.606c-0.391-0.391-1.023-0.391-1.414,0l-3.536,3.536l-1.061-1.061c-1.318-1.318-3.631-1.318-4.949,0
		c-1.365,1.364-1.365,3.585,0,4.95l0.303,0.303h-5.07c-1.103,0-2,0.897-2,2v4.444c-0.655-0.241-1.352-0.373-2.071-0.373
		c-1.603,0-3.109,0.624-4.243,1.758c-1.514,1.514-2.032,3.639-1.586,5.586c-1.344-0.874-3.267-0.734-4.424,0.423
		c-1.365,1.364-1.365,3.585,0,4.95l0.303,0.303h-5.071c-1.103,0-2,0.897-2,2v4.454c-1.318-1.31-3.626-1.311-4.943,0.005
		c-1.364,1.365-1.364,3.585,0,4.949l1.061,1.061l-3.018,3.019c-0.093,0.092-0.166,0.203-0.217,0.326
		c-0.051,0.122-0.077,0.252-0.077,0.382c0,1.103-0.897,2-2,2s-2-0.897-2-2s0.897-2,2-2c0.553,0,1-0.447,1-1s-0.447-1-1-1
		c-2.206,0-4,1.794-4,4s1.794,4,4,4c2.048,0,3.722-1.552,3.953-3.54l2.773-2.774l1.061,1.062c0.659,0.659,1.537,1.021,2.475,1.021
		c0.937,0,1.815-0.362,2.475-1.021c1.363-1.362,1.365-3.579,0.005-4.944h4.453c1.103,0,2-0.897,2-2v-5.071l0.304,0.304
		c0.659,0.659,1.538,1.022,2.476,1.022c0.937,0,1.815-0.363,2.475-1.022c1.195-1.195,1.343-3.046,0.445-4.404
		c0.43,0.096,0.871,0.151,1.322,0.151c1.603,0,3.109-0.624,4.242-1.757c1.134-1.134,1.758-2.641,1.758-4.243
		c0-0.719-0.132-1.416-0.373-2.071h4.444c1.103,0,2-0.897,2-2v-5.07l0.303,0.303c0.659,0.659,1.538,1.022,2.476,1.022
		c0.937,0,1.815-0.363,2.475-1.022c1.364-1.365,1.364-3.585,0-4.949l-1.061-1.061l3.536-3.536
		C57.985,12.63,57.985,11.997,57.595,11.606z M22.902,51.956c-0.563,0.563-1.56,0.563-2.121,0l-3.536-3.536
		c-0.584-0.585-0.584-1.536,0-2.121c0.281-0.281,0.658-0.437,1.061-0.437c0.403,0,0.78,0.155,1.062,0.437l3.535,3.535
		C23.487,50.419,23.487,51.371,22.902,51.956z M34.614,40.244c-0.563,0.563-1.561,0.562-2.122,0l-3.535-3.535
		c-0.585-0.585-0.585-1.537,0-2.122c0.281-0.281,0.658-0.436,1.061-0.436s0.779,0.154,1.061,0.436l3.536,3.536
		C35.199,38.708,35.199,39.659,34.614,40.244z M47.864,27.334h-5.671c-0.052-0.057-0.1-0.116-0.155-0.171
		c-0.055-0.055-0.114-0.103-0.171-0.155v-5.674h6L47.864,27.334z"/>
	<path d="M8.17,39.817l3.463-3.463l2.121,2.122c0.377,0.377,0.879,0.584,1.414,0.584s1.037-0.207,1.414-0.584l2.123-2.122
		c0.675-0.677,0.762-1.723,0.263-2.497c1.503-0.065,2.908-0.674,3.978-1.745c1.071-1.07,1.68-2.475,1.745-3.978
		c0.32,0.207,0.693,0.32,1.084,0.32c0.534,0,1.036-0.207,1.414-0.584l2.121-2.122c0.677-0.677,0.764-1.723,0.264-2.498
		c1.503-0.065,2.908-0.674,3.978-1.744c1.104-1.104,1.669-2.537,1.73-3.986c0.323,0.213,0.702,0.328,1.099,0.328
		c0.534,0,1.036-0.207,1.414-0.584l2.121-2.122c0.377-0.377,0.585-0.879,0.585-1.414c0-0.392-0.114-0.764-0.321-1.084
		c1.503-0.065,2.908-0.674,3.978-1.744c2.098-2.098,2.299-5.365,0.636-7.707l1.486-1.486c0.391-0.391,0.391-1.023,0-1.414
		s-1.023-0.391-1.414,0L43.389,1.77c-1.008-0.719-2.209-1.113-3.473-1.113c-1.603,0-3.109,0.624-4.242,1.757
		c-1.106,1.105-1.67,2.54-1.731,3.99c-0.768-0.489-1.855-0.406-2.512,0.252L29.31,8.778c-0.377,0.377-0.584,0.879-0.584,1.414
		c0,0.392,0.113,0.764,0.32,1.084c-1.503,0.065-2.908,0.674-3.979,1.744c-1.105,1.106-1.669,2.54-1.73,3.991
		c-0.768-0.489-1.857-0.405-2.512,0.252l-2.121,2.121c-0.678,0.677-0.765,1.724-0.265,2.498c-1.503,0.065-2.908,0.674-3.978,1.744
		c-1.105,1.106-1.669,2.54-1.73,3.991c-0.768-0.489-1.855-0.405-2.512,0.252l-2.12,2.12c-0.378,0.377-0.586,0.88-0.586,1.415
		s0.208,1.038,0.585,1.414l2.121,2.121l-4.054,4.053c-0.005,0.005-0.012,0.007-0.017,0.012c-0.391,0.39-0.391,1.023,0,1.414
		c0.779,0.78,0.779,2.049,0,2.829c-0.778,0.779-2.049,0.779-2.829,0c-0.78-0.78-0.78-2.049,0-2.829c0.391-0.391,0.391-1.023,0-1.414
		s-1.023-0.391-1.414,0c-1.56,1.56-1.56,4.098,0,5.657c0.78,0.779,1.804,1.169,2.828,1.169s2.05-0.39,2.829-1.169
		C8.873,43.35,9.067,41.35,8.17,39.817z M32.846,8.07l5.657,5.657l-2.119,2.12c0,0-0.001,0-0.002,0v0.002l-5.657-5.657L32.846,8.07z
		 M22.239,18.678l2.826,2.825c0.001,0.001,0.001,0.002,0.002,0.003c0.002,0.002,0.004,0.003,0.005,0.005l2.824,2.823l-2.118,2.12
		c-0.001,0-0.002,0-0.003,0l-0.001,0.002l-2.823-2.824c-0.002-0.002-0.003-0.004-0.005-0.005s-0.004-0.003-0.005-0.005l-2.823-2.823
		L22.239,18.678z M11.633,29.284l5.657,5.657l-2.119,2.119c0,0-0.001,0-0.003,0v0.002l-5.656-5.657L11.633,29.284z"/>
</g>
<g>
</g>
<g>
</g>
<g>
</g>
<g>
</g>
<g>
</g>
<g>
</g>
<g>
</g>
<g>
</g>
<g>
</g>
<g>
</g>
<g>
</g>
<g>
</g>
<g>
</g>
<g>
</g>
<g>
</g>
</svg>
