<?xml version="1.0" encoding="iso-8859-1"?>
<!-- Generator: Adobe Illustrator 19.0.0, SVG Export Plug-In . SVG Version: 6.00 Build 0)  -->
<svg version="1.1" id="Layer_1" xmlns="http://www.w3.org/2000/svg" xmlns:xlink="http://www.w3.org/1999/xlink" x="0px" y="0px"
	 viewBox="0 0 512.005 512.005" style="enable-background:new 0 0 512.005 512.005;" xml:space="preserve">
<g>
	<g>
		<path d="M426.667,192.005h-23.04c-2.987-20.715-10.197-40.043-20.8-57.109c0.021-0.064,0.043-0.085,0.064-0.149l19.755-59.221
			l39.104-39.104c8.341-8.341,8.341-21.824,0-30.165c-8.341-8.341-21.824-8.341-30.165,0l-42.667,42.667
			c-2.325,2.347-4.096,5.205-5.141,8.341l-13.483,40.405C324.565,76.656,291.733,64.005,256,64.005
			c-75.072,0-137.216,55.744-147.627,128h-23.04c-11.797,0-21.333,9.557-21.333,21.333v64c0,11.776,9.536,21.333,21.333,21.333
			h25.173l39.253,196.181c1.984,9.984,10.731,17.152,20.907,17.152h170.667c10.176,0,18.923-7.168,20.907-17.152l39.253-196.181
			h25.173c11.797,0,21.333-9.557,21.333-21.333v-64C448,201.563,438.464,192.005,426.667,192.005z M405.333,256.005H384H128h-21.333
			v-21.333H128h256h21.333V256.005z"/>
	</g>
</g>
<g>
</g>
<g>
</g>
<g>
</g>
<g>
</g>
<g>
</g>
<g>
</g>
<g>
</g>
<g>
</g>
<g>
</g>
<g>
</g>
<g>
</g>
<g>
</g>
<g>
</g>
<g>
</g>
<g>
</g>
</svg>
